<svg xmlns="http://www.w3.org/2000/svg" width="418" height="192"><linearGradient id="e" gradientUnits="userSpaceOnUse" x1="133.899" y1="45.135" x2="44.708" y2="12.142"><stop offset="0" stop-color="#9d2624"/><stop offset=".46" stop-color="#af2721"/><stop offset=".615" stop-color="#b53924"/><stop offset=".84" stop-color="#bc4e28"/><stop offset=".988" stop-color="#bf5629"/></linearGradient><path fill="url(#e)" d="M120.418 52.167c4.665-3.193 11.694-7.819 14.714-10.369 0 0-60.884-37.196-87.588-37.223 0 0-2.195 5.398-4.109 11.958 19.999 7.751 76.977 35.632 76.983 35.634z"/><linearGradient id="f" gradientUnits="userSpaceOnUse" x1="110.258" y1="60.382" x2="37.02" y2="38.827"><stop offset="0" stop-color="#9d2624"/><stop offset=".46" stop-color="#af2721"/><stop offset=".615" stop-color="#b53924"/><stop offset=".84" stop-color="#bc4e28"/><stop offset=".988" stop-color="#bf5629"/></linearGradient><path fill="url(#f)" d="M91.025 71.398c5.763-3.75 12.458-7.962 19.791-12.91C89 49.281 47.288 26.616 41.538 23.477c-.98 4.222-1.991 8.84-2.834 14.19 7.637 9.811 52.161 33.629 52.321 33.731z"/><linearGradient id="g" gradientUnits="userSpaceOnUse" x1="81.282" y1="72.587" x2="34.409" y2="64.659"><stop offset="0" stop-color="#9d2624"/><stop offset=".46" stop-color="#af2721"/><stop offset=".615" stop-color="#b53924"/><stop offset=".84" stop-color="#bc4e28"/><stop offset=".988" stop-color="#bf5629"/></linearGradient><path fill="url(#g)" d="M63.159 89.366c4.525-2.811 9.877-6.313 17.147-11.008-33.394-16.865-42.592-32.914-42.634-32.992-.475 5.293-.849 9.503-.849 15.438 8.021 15.681 26.216 28.483 26.336 28.562z"/><linearGradient id="h" gradientUnits="userSpaceOnUse" x1="57.26" y1="89.183" x2="34.427" y2="84.371"><stop offset="0" stop-color="#9d2624"/><stop offset=".46" stop-color="#af2721"/><stop offset=".615" stop-color="#b53924"/><stop offset=".84" stop-color="#bc4e28"/><stop offset=".988" stop-color="#bf5629"/></linearGradient><path fill="url(#h)" d="M56.284 93.81l-10.547 6.774c-5.125-8.455-7.841-20.922-8.52-29.454.001 0 8.844 16.759 19.067 22.68z"/><path fill="#222221" d="M110.64 90.788a5.932 5.932 0 01-.544 2.072 5.513 5.513 0 01-1.208 1.656 5.25 5.25 0 01-1.761 1.107c-.677.267-1.417.396-2.22.396-.772 0-1.535-.146-2.285-.451s-1.411-.737-1.972-1.299a5.637 5.637 0 01-1.021-1.454 7.265 7.265 0 01-.567-1.651 11.963 11.963 0 01-.242-1.751 30.448 30.448 0 01-.057-1.765c0-.573.022-1.158.057-1.752.038-.59.12-1.176.242-1.752a7.07 7.07 0 01.567-1.649 5.719 5.719 0 011.021-1.446 5.958 5.958 0 011.972-1.298 6.13 6.13 0 012.285-.45c.803 0 1.543.13 2.22.397a5.29 5.29 0 011.761 1.104 5.492 5.492 0 011.208 1.658c.304.637.482 1.329.544 2.073h-1.228a4.529 4.529 0 00-.434-1.642 4.407 4.407 0 00-.942-1.295 4.047 4.047 0 00-1.377-.844 5.16 5.16 0 00-1.752-.297c-.728 0-1.365.125-1.912.366a4.871 4.871 0 00-1.478 1.026 4.396 4.396 0 00-.855 1.27 7.372 7.372 0 00-.455 1.471 11.158 11.158 0 00-.182 1.545 38.17 38.17 0 00-.033 1.513c0 .483.012.995.033 1.516.027.52.089 1.039.194 1.559.105.517.262 1.011.468 1.477.207.474.49.894.852 1.275.895.923 2.015 1.389 3.368 1.389.638 0 1.218-.099 1.752-.301.534-.192.99-.475 1.377-.838a4.45 4.45 0 00.942-1.297 4.522 4.522 0 00.434-1.64h1.228zM122.766 90.04c0 .972-.118 1.835-.36 2.591a4.95 4.95 0 01-1.253 2.025c-.394.395-.87.718-1.425.979-.551.256-1.185.385-1.897.385-.711 0-1.347-.129-1.896-.385a4.936 4.936 0 01-1.425-.979 4.963 4.963 0 01-1.251-2.025c-.244-.756-.362-1.619-.362-2.591 0-.974.118-1.838.362-2.595.244-.76.66-1.435 1.251-2.03a4.918 4.918 0 011.425-.972c.55-.258 1.185-.386 1.896-.386.712 0 1.346.128 1.897.386.556.258 1.031.58 1.425.972a5.026 5.026 0 011.253 2.03c.242.757.36 1.62.36 2.595zm-1.156 0c0-.743-.086-1.442-.255-2.094-.164-.654-.508-1.242-1.017-1.775a3.553 3.553 0 00-1.07-.726c-.415-.188-.892-.278-1.438-.278-.547 0-1.023.091-1.433.278-.41.18-.766.422-1.066.726-.521.533-.866 1.122-1.028 1.775a8.572 8.572 0 00-.248 2.094c0 .741.083 1.442.248 2.089.163.657.507 1.248 1.028 1.779.3.302.656.542 1.066.723.41.18.886.276 1.433.276.546 0 1.023-.097 1.438-.276.408-.181.763-.42 1.07-.723.509-.532.853-1.123 1.017-1.779a8.269 8.269 0 00.255-2.089zM132.165 85.444a3.073 3.073 0 00-.555-.091 6.002 6.002 0 00-.562-.025c-.714 0-1.298.145-1.764.431a3.21 3.21 0 00-1.101 1.144 4.9 4.9 0 00-.58 1.59 9.226 9.226 0 00-.172 1.774v5.459h-1.136V84.349h1l.136 2.297c.259-.787.722-1.39 1.401-1.796a4.213 4.213 0 012.216-.615c.184 0 .369.004.562.009.186.01.369.03.555.059v1.141zM144.767 90.016a8.37 8.37 0 01-.429 2.687 5.218 5.218 0 01-1.344 2.135 4.343 4.343 0 01-1.331.867c-.508.209-1.094.314-1.76.314-.415 0-.807-.047-1.2-.158a4.38 4.38 0 01-1.977-1.153 3.432 3.432 0 01-.623-.891v6.456h-1.141V84.349h1.005l.136 2.003c.15-.347.36-.665.635-.955a4.294 4.294 0 011.989-1.183 4.255 4.255 0 011.15-.158c.652 0 1.224.093 1.714.277.495.195.934.45 1.313.791.638.563 1.105 1.27 1.407 2.125a8.2 8.2 0 01.456 2.767zm-1.157.024c0-.822-.121-1.584-.355-2.298-.237-.713-.615-1.306-1.15-1.773a3.057 3.057 0 00-.978-.596 3.612 3.612 0 00-1.274-.207c-.498 0-.934.091-1.317.249a3.638 3.638 0 00-1.001.664 4.393 4.393 0 00-1.115 1.764 6.878 6.878 0 00-.34 2.197c0 .852.107 1.602.318 2.261a3.904 3.904 0 001.113 1.72c.287.272.627.487 1.015.645.383.162.843.241 1.378.241.529 0 .99-.097 1.39-.276.391-.181.738-.42 1.043-.723a4.48 4.48 0 00.964-1.754c.206-.68.309-1.387.309-2.114zM157.144 90.04c0 .972-.119 1.835-.36 2.591a4.967 4.967 0 01-2.678 3.004c-.548.256-1.185.385-1.899.385-.711 0-1.342-.129-1.896-.385a4.965 4.965 0 01-1.42-.979 4.88 4.88 0 01-1.251-2.025c-.244-.756-.367-1.619-.367-2.591 0-.974.123-1.838.367-2.595a4.947 4.947 0 012.671-3.002c.554-.258 1.186-.386 1.896-.386.714 0 1.352.128 1.899.386.558.258 1.031.58 1.427.972a5.044 5.044 0 011.251 2.03c.241.757.36 1.62.36 2.595zm-1.158 0c0-.743-.084-1.442-.25-2.094-.17-.654-.511-1.242-1.026-1.775a3.43 3.43 0 00-1.067-.726c-.411-.188-.886-.278-1.436-.278-.543 0-1.021.091-1.431.278-.41.18-.767.422-1.068.726-.517.533-.857 1.122-1.028 1.775a8.523 8.523 0 00-.25 2.094c0 .741.085 1.442.25 2.089.17.657.511 1.248 1.028 1.779.301.302.658.542 1.068.723.41.18.888.276 1.431.276.55 0 1.025-.097 1.436-.276.41-.181.765-.42 1.067-.723.516-.532.856-1.123 1.026-1.779a8.41 8.41 0 00.25-2.089zM166.544 85.444a3.066 3.066 0 00-.557-.091 5.963 5.963 0 00-.558-.025c-.714 0-1.3.145-1.765.431a3.293 3.293 0 00-1.106 1.144c-.27.469-.463.998-.58 1.59-.11.588-.17 1.18-.17 1.774v5.459h-1.136V84.349h1.004l.131 2.297c.258-.787.724-1.39 1.401-1.796a4.204 4.204 0 012.22-.615c.181 0 .365.004.558.009.188.01.371.03.557.059v1.141zM178.533 95.727c-.135.035-.23.043-.272.053a1.384 1.384 0 01-.271.014c-.701 0-1.175-.217-1.425-.659-.251-.44-.375-.962-.375-1.569a3.204 3.204 0 01-.648 1.066 3.994 3.994 0 01-.966.766 4.508 4.508 0 01-1.185.465 5.099 5.099 0 01-1.298.158 4.706 4.706 0 01-1.534-.24 3.577 3.577 0 01-1.25-.689 3.163 3.163 0 01-.836-1.105c-.193-.431-.288-.918-.288-1.467 0-1.017.349-1.819 1.052-2.399.707-.583 1.63-.919 2.768-.988l4.185-.302v-1.112c0-.94-.287-1.609-.853-2.003-.566-.391-1.284-.59-2.151-.59-.91 0-1.67.204-2.274.615-.607.408-.939 1.038-1.003 1.886h-1.14c.049-.575.187-1.083.424-1.527.234-.433.548-.811.931-1.113a4.24 4.24 0 011.365-.691 5.686 5.686 0 011.696-.239c.394 0 .786.032 1.171.098.385.074.755.187 1.103.359.349.166.662.377.935.646.272.27.482.595.638.989.135.35.221.703.249 1.072.028.357.044.736.044 1.11v5.189c0 .394.051.697.15.906.098.221.343.324.74.324.133 0 .242-.007.318-.024v1.001zm-2.344-5.845l-4.074.249c-.849.053-1.523.291-2.021.716-.502.416-.75.976-.75 1.67 0 .819.27 1.435.804 1.847.541.408 1.215.613 2.038.613.715 0 1.32-.135 1.831-.401a3.58 3.58 0 001.238-1.031c.318-.431.554-.91.708-1.445a6.137 6.137 0 00.228-1.628v-.59zM190.269 92.129a4.771 4.771 0 01-.473 1.541 4.326 4.326 0 01-.943 1.238c-.388.347-.84.622-1.357.819a4.65 4.65 0 01-1.661.293c-.713 0-1.348-.123-1.909-.373a4.742 4.742 0 01-1.438-.969 4.886 4.886 0 01-1.234-2.036c-.238-.764-.357-1.63-.357-2.603 0-.974.119-1.843.357-2.608a4.907 4.907 0 011.234-2.035 4.738 4.738 0 011.438-.967c.561-.249 1.195-.374 1.909-.374.595 0 1.142.088 1.648.271.509.187.954.445 1.333.785.377.341.693.748.943 1.218.25.469.407.992.466 1.57h-1.181A3.203 3.203 0 00188 85.943c-.583-.512-1.3-.778-2.166-.778-.543 0-1.027.091-1.444.267-.42.174-.777.415-1.081.715-.517.531-.853 1.129-1.013 1.786a8.819 8.819 0 00-.24 2.106c0 .741.078 1.448.24 2.114a3.843 3.843 0 001.013 1.799c.61.637 1.45.955 2.524.955.879 0 1.607-.269 2.175-.807a3.49 3.49 0 001.056-1.972h1.205zM193.436 81.189v-1.594h1.593v1.594h-1.593zm.203 14.538V84.349h1.208v11.377h-1.208zM208.341 90.04c0 .972-.127 1.835-.367 2.591a4.96 4.96 0 01-1.253 2.025 4.932 4.932 0 01-1.419.979c-.553.256-1.189.385-1.901.385-.713 0-1.345-.129-1.898-.385a5.038 5.038 0 01-1.426-.979 4.982 4.982 0 01-1.25-2.025c-.242-.756-.365-1.619-.365-2.591 0-.974.123-1.838.365-2.595a5.063 5.063 0 011.25-2.03c.398-.392.87-.714 1.426-.972.554-.258 1.185-.386 1.898-.386.711 0 1.348.128 1.901.386.554.258 1.027.58 1.419.972.59.595 1.01 1.27 1.253 2.03.24.757.367 1.62.367 2.595zm-1.161 0c0-.743-.086-1.442-.252-2.094-.168-.654-.506-1.242-1.023-1.775a3.494 3.494 0 00-1.068-.726c-.414-.188-.892-.278-1.435-.278-.545 0-1.023.091-1.431.278-.413.18-.771.422-1.073.726-.514.533-.856 1.122-1.025 1.775a8.475 8.475 0 00-.25 2.094c0 .741.084 1.442.25 2.089.169.657.511 1.248 1.025 1.779.302.302.66.542 1.073.723.408.18.886.276 1.431.276.543 0 1.021-.097 1.435-.276.408-.181.763-.42 1.068-.723.517-.532.855-1.123 1.023-1.779a8.41 8.41 0 00.252-2.089zm-5.347-7.237l-.389-.615 3.6-2.635.632.999-3.843 2.251zM227.699 90.788a5.892 5.892 0 01-.547 2.072 5.329 5.329 0 01-1.207 1.656 5.27 5.27 0 01-1.763 1.107c-.677.267-1.411.396-2.218.396a6.007 6.007 0 01-2.285-.451 5.891 5.891 0 01-1.969-1.299 5.702 5.702 0 01-1.025-1.454 7.021 7.021 0 01-.564-1.651 11.199 11.199 0 01-.238-1.751 25.469 25.469 0 010-3.517c.033-.59.115-1.176.238-1.752.117-.575.307-1.124.564-1.649s.604-1.003 1.025-1.446a5.965 5.965 0 011.969-1.298 6.122 6.122 0 012.285-.45c.807 0 1.541.13 2.218.397a5.31 5.31 0 011.763 1.104 5.326 5.326 0 011.207 1.658c.305.637.486 1.329.547 2.073h-1.229a4.473 4.473 0 00-.438-1.642 4.216 4.216 0 00-.941-1.295 4.107 4.107 0 00-1.373-.844 5.163 5.163 0 00-1.754-.297c-.731 0-1.366.125-1.908.366a4.855 4.855 0 00-1.48 1.026 4.307 4.307 0 00-.852 1.27 7.012 7.012 0 00-.459 1.471 10.31 10.31 0 00-.18 1.545 29.291 29.291 0 00-.031 1.513c0 .483.004.995.031 1.516a9.76 9.76 0 00.19 1.559c.109.517.263 1.011.47 1.477.207.474.49.894.849 1.275.898.923 2.019 1.389 3.37 1.389.637 0 1.221-.099 1.754-.301a3.999 3.999 0 001.373-.838c.39-.365.703-.796.941-1.297a4.466 4.466 0 00.438-1.64h1.229zM240.348 95.727c-.137.035-.229.043-.271.053a1.432 1.432 0 01-.277.014c-.695 0-1.168-.217-1.424-.659-.247-.44-.371-.962-.371-1.569-.15.409-.369.766-.647 1.066a3.839 3.839 0 01-.968.766 4.467 4.467 0 01-1.181.465 5.116 5.116 0 01-1.296.158c-.55 0-1.063-.077-1.536-.24a3.581 3.581 0 01-1.251-.689 3.202 3.202 0 01-.837-1.105 3.531 3.531 0 01-.294-1.467c0-1.017.355-1.819 1.061-2.399.704-.583 1.629-.919 2.764-.988l4.186-.302v-1.112c0-.94-.285-1.609-.854-2.003-.568-.391-1.287-.59-2.15-.59-.909 0-1.67.204-2.274.615-.606.408-.938 1.038-1.002 1.886h-1.139a3.995 3.995 0 01.424-1.527c.235-.433.548-.811.936-1.113a4.148 4.148 0 011.361-.691 5.677 5.677 0 011.694-.239c.396 0 .783.032 1.176.098.385.074.753.187 1.1.359.348.166.663.377.937.646.271.27.481.595.634.989.136.35.221.703.248 1.072.03.357.047.736.047 1.11v5.189c0 .394.051.697.15.906.101.221.346.324.742.324.132 0 .238-.007.314-.024v1.001zm-2.344-5.845l-4.074.249c-.85.053-1.523.291-2.022.716-.501.416-.751.976-.751 1.67 0 .819.271 1.435.808 1.847.538.408 1.218.613 2.031.613.719 0 1.333-.135 1.839-.401.508-.262.92-.607 1.239-1.031.315-.431.55-.91.704-1.445a6.177 6.177 0 00.227-1.628v-.59zM248.972 95.609c-.32.078-.633.141-.947.195-.307.055-.623.08-.939.08-1.064 0-1.817-.307-2.265-.918-.446-.613-.672-1.415-.672-2.403v-7.167h-2.277v-1.048h2.277v-3.142l1.137-.269v3.411h3.529v1.048h-3.529v7.121c0 .332.024.639.083.92.049.281.149.524.295.729.142.209.334.366.578.482.24.104.552.161.933.161.302 0 .603-.014.9-.057.293-.029.59-.082.897-.14v.997zM261.414 95.727c-.137.035-.222.043-.273.053a1.359 1.359 0 01-.27.014c-.699 0-1.172-.217-1.425-.659-.251-.44-.372-.962-.372-1.569a3.206 3.206 0 01-.649 1.066 3.951 3.951 0 01-.965.766c-.365.207-.76.365-1.185.465a5.096 5.096 0 01-1.297.158 4.722 4.722 0 01-1.536-.24 3.604 3.604 0 01-1.248-.689 3.082 3.082 0 01-.832-1.105c-.201-.431-.3-.918-.3-1.467 0-1.017.353-1.819 1.062-2.399.703-.583 1.623-.919 2.758-.988l4.192-.302v-1.112c0-.94-.284-1.609-.855-2.003-.568-.391-1.286-.59-2.148-.59-.91 0-1.671.204-2.277.615-.606.408-.938 1.038-1.001 1.886h-1.137a3.993 3.993 0 01.42-1.527 3.63 3.63 0 01.935-1.113 4.208 4.208 0 011.363-.691 5.67 5.67 0 011.697-.239c.392 0 .787.032 1.171.098.387.074.752.187 1.104.359.346.166.658.377.929.646.279.27.489.595.641.989.136.35.221.703.254 1.072.024.357.038.736.038 1.11v5.189c0 .394.054.697.149.906.098.221.345.324.741.324.139 0 .241-.007.316-.024v1.001zm-2.34-5.845l-4.073.249c-.849.053-1.525.291-2.028.716-.494.416-.751.976-.751 1.67 0 .819.271 1.435.811 1.847.54.408 1.218.613 2.036.613.711 0 1.326-.135 1.833-.401a3.59 3.59 0 001.241-1.031c.317-.431.549-.91.702-1.445a5.903 5.903 0 00.229-1.628v-.59zM267.991 95.727c-.12.035-.264.06-.419.09-.157.033-.36.045-.603.045-.73 0-1.288-.191-1.684-.578s-.599-.999-.599-1.833V79.302h1.142v14.104c0 .393.074.721.227.979.153.261.473.388.957.388h.538c.126 0 .275-.021.44-.049v1.003zM280.528 95.727c-.133.035-.227.043-.271.053a1.51 1.51 0 01-.279.014c-.694 0-1.167-.217-1.417-.659-.248-.44-.375-.962-.375-1.569-.154.409-.37.766-.652 1.066a3.904 3.904 0 01-.963.766 4.408 4.408 0 01-1.184.465 5.126 5.126 0 01-1.298.158 4.689 4.689 0 01-1.534-.24 3.595 3.595 0 01-1.25-.689 3.12 3.12 0 01-.833-1.105 3.564 3.564 0 01-.296-1.467c0-1.017.351-1.819 1.059-2.399.708-.583 1.624-.919 2.764-.988l4.188-.302v-1.112c0-.94-.287-1.609-.853-2.003-.574-.391-1.288-.59-2.153-.59-.906 0-1.67.204-2.276.615-.604.408-.935 1.038-.999 1.886h-1.138c.047-.575.183-1.083.418-1.527a3.64 3.64 0 01.934-1.113 4.235 4.235 0 011.368-.691 5.666 5.666 0 011.693-.239c.398 0 .789.032 1.176.098.385.074.754.187 1.104.359.347.166.656.377.932.646.271.27.482.595.636.989.135.35.222.703.249 1.072.028.357.05.736.05 1.11v5.189c0 .394.048.697.144.906.099.221.348.324.738.324.14 0 .246-.007.32-.024v1.001zm-2.342-5.845l-4.075.249c-.85.053-1.525.291-2.021.716-.503.416-.756.976-.756 1.67 0 .819.271 1.435.815 1.847.536.408 1.215.613 2.035.613.704 0 1.318-.135 1.828-.401a3.575 3.575 0 001.237-1.031c.321-.431.557-.91.711-1.445.15-.542.226-1.087.226-1.628v-.59zM291.725 95.727v-7.441c0-1.001-.231-1.769-.685-2.306-.454-.54-1.207-.814-2.255-.814-.694 0-1.288.14-1.772.414a3.263 3.263 0 00-1.169 1.092c-.305.459-.506.975-.641 1.556a8.357 8.357 0 00-.191 1.813v5.687h-1.139V84.349h1.001l.138 2.071c.166-.364.381-.691.642-.976.269-.288.576-.537.914-.741.34-.204.71-.37 1.107-.475a4.087 4.087 0 011.178-.172c1.323 0 2.32.367 2.996 1.109.674.746 1.012 1.762 1.012 3.051v7.51h-1.136zM306.555 95.727c-.137.035-.227.043-.272.053a1.402 1.402 0 01-.274.014c-.696 0-1.17-.217-1.422-.659-.25-.44-.371-.962-.371-1.569a3.208 3.208 0 01-.65 1.066 3.882 3.882 0 01-.966.766 4.563 4.563 0 01-1.181.465c-.43.111-.862.158-1.301.158a4.69 4.69 0 01-1.532-.24 3.645 3.645 0 01-1.257-.689 3.144 3.144 0 01-.829-1.105 3.485 3.485 0 01-.296-1.467c0-1.017.354-1.819 1.057-2.399.705-.583 1.632-.919 2.763-.988l4.192-.302v-1.112c0-.94-.288-1.609-.854-2.003-.574-.391-1.29-.59-2.153-.59-.907 0-1.668.204-2.28.615-.599.408-.93 1.038-.995 1.886h-1.137a3.79 3.79 0 01.418-1.527c.236-.433.551-.811.935-1.113a4.204 4.204 0 011.368-.691 5.625 5.625 0 011.691-.239c.394 0 .783.032 1.173.098.392.074.755.187 1.104.359.348.166.659.377.93.646.271.27.487.595.637.989.135.35.222.703.253 1.072.031.357.046.736.046 1.11v5.189c0 .394.046.697.146.906.1.221.35.324.743.324.132 0 .239-.007.314-.024v1.001zm-2.34-5.845l-4.075.249c-.851.053-1.524.291-2.024.716-.504.416-.752.976-.752 1.67 0 .819.271 1.435.812 1.847.536.408 1.217.613 2.032.613.713 0 1.324-.135 1.833-.401a3.518 3.518 0 001.236-1.031c.321-.431.557-.91.708-1.445.153-.542.23-1.087.23-1.628v-.59zM107.479 118.479l-.138-2.001c-.147.35-.364.665-.635.953-.276.288-.582.53-.909.726a4.217 4.217 0 01-1.084.46 4.398 4.398 0 01-1.149.157c-.65 0-1.225-.093-1.718-.284a4.3 4.3 0 01-1.307-.785 4.973 4.973 0 01-1.412-2.129 8.187 8.187 0 01-.455-2.762c0-.944.145-1.84.431-2.687a5.225 5.225 0 011.343-2.142 4.357 4.357 0 011.334-.862c.506-.209 1.092-.319 1.761-.319.411 0 .807.056 1.193.16.387.108.75.255 1.08.458.34.198.635.426.901.702.263.276.478.568.625.889v-6.964h1.139v16.43h-1zm-.114-5.689c0-.851-.105-1.604-.317-2.265a3.927 3.927 0 00-1.114-1.714 3.147 3.147 0 00-1.017-.647c-.384-.162-.841-.243-1.375-.243a3.38 3.38 0 00-1.387.273 3.708 3.708 0 00-1.046.73 4.453 4.453 0 00-.967 1.749 7.316 7.316 0 00-.31 2.116c0 .819.118 1.586.355 2.299.236.71.619 1.305 1.151 1.775.288.256.612.457.974.594.364.131.791.204 1.277.204.5 0 .942-.087 1.318-.253a3.493 3.493 0 001.004-.663 4.393 4.393 0 001.116-1.76 6.993 6.993 0 00.338-2.195zM121.858 112.315c0 .134-.004.256-.01.374-.009.115-.009.239-.009.377h-8.694c.015.664.123 1.292.328 1.877.205.577.488 1.09.855 1.535.318.378.703.67 1.152.884.443.213.977.323 1.602.323 1.018 0 1.841-.341 2.481-1.002.209-.214.387-.449.531-.706a3.33 3.33 0 00.332-.908h1.184c-.078.476-.23.926-.458 1.325a4.708 4.708 0 01-2.264 2.03 4.61 4.61 0 01-1.807.35c-.82 0-1.528-.152-2.118-.455a5.006 5.006 0 01-1.499-1.157 5.73 5.73 0 01-1.083-1.926 7.4 7.4 0 01-.377-2.402c0-.722.078-1.436.23-2.117a5.204 5.204 0 01.885-1.933c.973-1.318 2.264-1.979 3.868-1.979.775 0 1.462.154 2.06.46.598.303 1.11.702 1.528 1.211.41.512.736 1.097.951 1.768.223.669.332 1.357.332 2.071zm-1.161-.298a5.276 5.276 0 00-.271-1.561 4.168 4.168 0 00-.728-1.316 3.56 3.56 0 00-1.163-.927c-.453-.227-.97-.336-1.547-.336-.591 0-1.122.108-1.59.328s-.871.518-1.193.899c-.33.378-.582.816-.767 1.321a4.628 4.628 0 00-.271 1.591h7.53zM143.13 118.479v-11.515l-4.185 11.283h-2.164l-4.16-11.42v11.651h-2.844v-16.131h3.959l4.228 11.49 4.257-11.49h3.752v16.131h-2.843zM149.591 105.009v-2.932h3.055v2.932h-3.055zm.094 13.47v-11.833h2.892v11.833h-2.892zM162.837 118.319c-.822.21-1.632.32-2.437.32-1.197 0-2.095-.322-2.686-.968-.588-.646-.886-1.537-.886-2.675v-6.003h-2.159v-2.348h2.159v-2.998l2.842-.705v3.703h2.981v2.348h-2.981v5.753c0 .46.106.786.32.99.211.21.546.308 1 .308a17.515 17.515 0 001.846-.111v2.386zM168.408 120.114c0 1.017-.285 1.822-.864 2.413-.576.591-1.398.886-2.458.886h-.49a2.48 2.48 0 01-.508-.048c-.185-.026-.38-.057-.595-.087a4.445 4.445 0 01-.705-.16v-2.41c.213.03.383.058.512.07.13.014.241.023.329.036.092.006.181.013.265.022.084.002.176.007.285.007.439 0 .775-.113 1.013-.342.233-.229.351-.537.351-.93v-12.926h2.867v13.469zm-2.98-15.148v-2.938h3.047v2.938h-3.047zM182.288 118.342a6.167 6.167 0 01-.628.242c-.173.05-.439.078-.783.078-.622 0-1.101-.168-1.434-.505a1.879 1.879 0 01-.568-1.156c-.275.48-.73.899-1.37 1.247-.633.354-1.373.526-2.229.526-.695 0-1.314-.097-1.849-.307a3.936 3.936 0 01-1.343-.817 3.436 3.436 0 01-.81-1.185 3.686 3.686 0 01-.271-1.396c0-.566.1-1.063.302-1.505a3.42 3.42 0 01.857-1.139 4.054 4.054 0 011.269-.74 6.198 6.198 0 011.573-.328l3.482-.249v-.73c0-.559-.132-1.014-.398-1.353-.266-.339-.798-.509-1.603-.509-.667 0-1.185.144-1.557.426-.377.292-.576.711-.604 1.252h-2.754c.047-.665.201-1.244.47-1.729a3.443 3.443 0 011.056-1.194c.44-.31.953-.536 1.535-.691a7.29 7.29 0 011.854-.229c1.017 0 1.923.176 2.717.536.799.359 1.372.981 1.722 1.88.15.373.245.77.281 1.176.04.414.058.814.058 1.211v4.387c0 .278.044.466.151.581.096.116.269.175.507.175.123 0 .207-.011.254-.024a.373.373 0 01.113-.022v2.091zm-3.802-5.121l-3 .228a2.233 2.233 0 00-1.183.436c-.349.258-.529.628-.529 1.113 0 .458.173.816.515 1.082a1.85 1.85 0 001.171.399c.896 0 1.626-.23 2.186-.699.562-.46.841-1.132.841-2.01v-.549zM192.002 118.479v-7.26c0-.695-.139-1.241-.41-1.637-.274-.395-.79-.589-1.546-.589-.502 0-.92.138-1.252.418-.335.28-.599.643-.793 1.077a4.146 4.146 0 00-.357 1.564 43.339 43.339 0 00-.032 1.599v4.827h-2.84v-11.833h2.38l.209 1.527a3.173 3.173 0 011.492-1.377 4.652 4.652 0 011.989-.445c.633 0 1.201.105 1.696.319.489.214.908.504 1.249.873.341.375.607.815.787 1.333.179.518.273 1.085.273 1.702v7.9h-2.845zM207.406 114.814c0 .577-.095 1.075-.283 1.506a3.652 3.652 0 01-.745 1.089c-.484.489-1.073.831-1.774 1.048a7.809 7.809 0 01-2.275.317 6.509 6.509 0 01-2.116-.332 4.43 4.43 0 01-1.7-1.033 4.44 4.44 0 01-.894-1.203 3.362 3.362 0 01-.359-1.548h2.66c0 .256.062.51.183.771.123.261.272.461.455.616.226.184.48.316.763.398.281.078.625.124 1.036.124.24 0 .5-.019.783-.056.281-.042.543-.114.785-.215a1.63 1.63 0 00.604-.457c.16-.196.24-.457.24-.771 0-.348-.109-.633-.322-.845-.209-.213-.5-.352-.863-.41a33.32 33.32 0 00-1.636-.196 12.365 12.365 0 01-1.643-.257 3.767 3.767 0 01-1.101-.433 3.375 3.375 0 01-.848-.719 3.02 3.02 0 01-.757-2.016c0-.604.117-1.125.344-1.556.226-.434.515-.8.868-1.102a4.666 4.666 0 011.566-.876 6.288 6.288 0 012.024-.31c.715 0 1.397.118 2.059.342.66.229 1.208.578 1.651 1.047.317.35.572.729.76 1.149.195.417.285.845.285 1.285h-2.708a1.39 1.39 0 00-.135-.617 2.142 2.142 0 00-.342-.5 1.774 1.774 0 00-.67-.397 2.628 2.628 0 00-.872-.144c-.217 0-.416.008-.617.02a2.016 2.016 0 00-.613.157 1.6 1.6 0 00-.648.479 1.186 1.186 0 00-.264.771c0 .426.149.723.443.879.299.157.602.262.924.308.269.028.502.056.679.081l.545.065c.185.025.375.05.572.081.197.027.441.067.726.115.945.152 1.714.509 2.325 1.082.599.569.905 1.322.905 2.263zM224.515 118.479l-1.048-3.097h-6.412l-1.049 3.097h-2.96l5.669-16.131h3.203l5.666 16.131h-3.069zm-4.253-12.534l-2.301 6.799h4.596l-2.295-6.799zM236.639 118.479l-.201-1.542c-.287.572-.737 1.021-1.348 1.35-.604.324-1.285.487-2.044.487-.64 0-1.204-.097-1.709-.307a3.68 3.68 0 01-1.284-.867 3.78 3.78 0 01-.82-1.328 5.079 5.079 0 01-.285-1.73v-7.896h2.845v7.259c0 .699.155 1.244.456 1.648.305.408.832.607 1.594.607.332 0 .617-.062.854-.172.232-.116.436-.252.601-.425a2.28 2.28 0 00.696-1.204c.111-.487.17-.969.17-1.458v-6.256h2.846v11.833h-2.371zM250.227 118.479l-.185-1.294a3.041 3.041 0 01-1.435 1.192 4.896 4.896 0 01-1.887.373 4.595 4.595 0 01-1.619-.271 4.485 4.485 0 01-1.271-.728 5.102 5.102 0 01-1.582-2.176c-.34-.872-.517-1.868-.517-2.99 0-1.169.181-2.198.527-3.085a5.246 5.246 0 011.592-2.194 4.088 4.088 0 011.262-.702 4.883 4.883 0 011.627-.253c.761 0 1.398.115 1.924.329.527.224.916.486 1.169.785v-5.416h2.845v16.43h-2.45zm-.254-5.94c0-.424-.03-.857-.104-1.308a3.848 3.848 0 00-.396-1.228 2.493 2.493 0 00-.818-.909c-.352-.235-.803-.354-1.365-.354-.442 0-.815.089-1.129.273-.306.182-.57.4-.784.656a3.27 3.27 0 00-.606 1.344 8.63 8.63 0 00-.146 1.525c0 .521.056 1.031.146 1.538.102.509.304.957.606 1.352.214.261.479.479.784.664.313.18.687.27 1.129.27.563 0 1.014-.114 1.365-.355.348-.235.62-.536.818-.906.195-.37.331-.79.396-1.241.074-.457.104-.897.104-1.321zM256.186 105.009v-2.932h3.05v2.932h-3.05zm.09 13.47v-11.833h2.889v11.833h-2.889zM272.979 112.563c0 1.001-.124 1.836-.369 2.513a6.643 6.643 0 01-1.023 1.861c-.407.494-.979.925-1.694 1.288-.719.364-1.536.549-2.446.549s-1.728-.185-2.442-.549c-.722-.363-1.29-.794-1.693-1.288a6.669 6.669 0 01-1.027-1.861c-.244-.677-.365-1.512-.365-2.513 0-1 .121-1.841.365-2.513a6.478 6.478 0 011.027-1.856c.403-.5.972-.93 1.693-1.297.715-.364 1.532-.546 2.442-.546s1.728.182 2.446.546c.715.367 1.287.797 1.694 1.297a6.493 6.493 0 011.023 1.856c.245.673.369 1.513.369 2.513zm-2.89 0c0-.564-.057-1.104-.165-1.628a2.73 2.73 0 00-.679-1.353 2.374 2.374 0 00-.754-.535 2.363 2.363 0 00-1.046-.219 2.37 2.37 0 00-1.048.219c-.3.143-.553.322-.749.535a2.742 2.742 0 00-.684 1.353 8.085 8.085 0 00-.158 1.628c0 .563.051 1.101.158 1.625.105.527.333.976.684 1.353a2.398 2.398 0 001.797.756c.396 0 .742-.071 1.046-.218.305-.144.558-.326.754-.538a2.71 2.71 0 00.679-1.353 8.003 8.003 0 00.165-1.625zM281.231 118.479h-3.022l-4.391-11.833h3.001l2.961 8.332 2.797-8.332h2.936l-4.282 11.833zM287.239 105.009v-2.932h3.054v2.932h-3.054zm.094 13.47v-11.833h2.889v11.833h-2.889zM302.983 114.814c0 .577-.092 1.075-.281 1.506a3.503 3.503 0 01-.742 1.089c-.485.489-1.077.831-1.775 1.048a7.816 7.816 0 01-2.276.317c-.753 0-1.46-.109-2.108-.332a4.457 4.457 0 01-1.711-1.033 4.568 4.568 0 01-.887-1.203 3.328 3.328 0 01-.363-1.548h2.661c0 .256.063.51.18.771.124.261.275.461.456.616.23.184.48.316.769.398.276.078.619.124 1.029.124.245 0 .503-.019.788-.056.279-.042.538-.114.782-.215.243-.106.447-.264.6-.457.16-.196.24-.457.24-.771 0-.348-.104-.633-.32-.845-.208-.213-.496-.352-.862-.41a32.688 32.688 0 00-1.638-.196 12.24 12.24 0 01-1.638-.257 3.813 3.813 0 01-1.103-.433 3.565 3.565 0 01-.853-.719 3.04 3.04 0 01-.751-2.016c0-.604.112-1.125.341-1.556.229-.434.512-.8.867-1.102a4.642 4.642 0 011.567-.876 6.27 6.27 0 012.021-.31c.714 0 1.403.118 2.064.342a4.056 4.056 0 011.65 1.047c.318.35.571.729.763 1.149.188.417.28.845.28 1.285h-2.711c0-.231-.042-.437-.129-.617a2.29 2.29 0 00-.346-.5c-.16-.164-.388-.296-.669-.397a2.666 2.666 0 00-.877-.144c-.21 0-.419.008-.611.02a1.99 1.99 0 00-.617.157 1.613 1.613 0 00-.646.479c-.178.213-.258.472-.258.771 0 .426.139.723.438.879.296.157.603.262.92.308.271.028.499.056.68.081l.549.065c.188.025.372.05.571.081.196.027.438.067.729.115.94.152 1.71.509 2.319 1.082.606.569.908 1.322.908 2.263zM313.156 118.479l-.207-1.542c-.287.572-.735 1.021-1.344 1.35-.604.324-1.288.487-2.042.487-.641 0-1.21-.097-1.71-.307a3.63 3.63 0 01-1.285-.867 3.767 3.767 0 01-.821-1.328 5.055 5.055 0 01-.282-1.73v-7.896h2.844v7.259c0 .699.154 1.244.456 1.648.302.408.83.607 1.591.607.334 0 .616-.062.852-.172.239-.116.438-.252.606-.425.346-.314.578-.716.692-1.204.115-.487.17-.969.17-1.458v-6.256h2.846v11.833h-2.366zM329.374 118.342a6.331 6.331 0 01-.624.242c-.167.05-.435.078-.781.078-.625 0-1.103-.168-1.435-.505a1.862 1.862 0 01-.571-1.156c-.271.48-.725.899-1.364 1.247-.636.354-1.376.526-2.228.526-.702 0-1.319-.097-1.855-.307a4.01 4.01 0 01-1.344-.817 3.45 3.45 0 01-.81-1.185 3.805 3.805 0 01-.271-1.396c0-.566.101-1.063.309-1.505.201-.438.486-.82.856-1.139a3.955 3.955 0 011.269-.74 6.089 6.089 0 011.567-.328l3.483-.249v-.73c0-.559-.13-1.014-.399-1.353-.262-.339-.795-.509-1.603-.509-.668 0-1.189.144-1.558.426-.369.292-.569.711-.604 1.252h-2.753c.046-.665.205-1.244.469-1.729a3.5 3.5 0 011.058-1.194 4.73 4.73 0 011.534-.691 7.244 7.244 0 011.854-.229c1.017 0 1.923.176 2.721.536.799.359 1.367.981 1.715 1.88.155.373.245.77.285 1.176.041.414.057.814.057 1.211v4.387c0 .278.047.466.149.581.099.116.267.175.512.175.119 0 .204-.011.25-.024a.434.434 0 01.111-.022v2.091zm-3.798-5.121l-3.004.228c-.44.032-.835.182-1.182.436-.351.258-.523.628-.523 1.113 0 .458.17.816.514 1.082.339.267.731.399 1.167.399.9 0 1.626-.23 2.188-.699.557-.46.84-1.132.84-2.01v-.549zM336.272 118.457a44.62 44.62 0 01-.623.127 4.406 4.406 0 01-.63.033c-.968 0-1.752-.251-2.346-.755-.592-.5-.88-1.308-.88-2.434v-13.4h2.862v12.927c0 .343.067.621.204.824.137.21.448.313.938.313.119 0 .209-.006.266-.014.066-.01.131-.011.209-.011v2.39zM347.915 114.814c0 .577-.088 1.075-.283 1.506a3.66 3.66 0 01-.734 1.089c-.486.489-1.076.831-1.778 1.048a7.804 7.804 0 01-2.27.317 6.476 6.476 0 01-2.119-.332 4.449 4.449 0 01-1.703-1.033 4.41 4.41 0 01-.891-1.203 3.249 3.249 0 01-.369-1.548h2.666c0 .256.062.51.181.771.127.261.273.461.459.616.225.184.479.316.762.398a3.86 3.86 0 001.035.124c.243 0 .504-.019.783-.056.282-.042.543-.114.782-.215.243-.106.444-.264.61-.457.151-.196.234-.457.234-.771 0-.348-.108-.633-.318-.845-.213-.213-.503-.352-.863-.41a33.014 33.014 0 00-1.639-.196 12.27 12.27 0 01-1.64-.257 3.706 3.706 0 01-1.1-.433 3.5 3.5 0 01-.859-.719 3.065 3.065 0 01-.552-.934 2.978 2.978 0 01-.199-1.082c0-.604.117-1.125.348-1.556.224-.434.509-.8.864-1.102a4.68 4.68 0 011.565-.876c.605-.206 1.277-.31 2.023-.31a6.35 6.35 0 012.06.342 4.054 4.054 0 011.653 1.047c.314.35.565.729.762 1.149.193.417.281.845.281 1.285h-2.705a1.39 1.39 0 00-.135-.617 2.398 2.398 0 00-.346-.5 1.811 1.811 0 00-.664-.397 2.703 2.703 0 00-.884-.144c-.209 0-.412.008-.613.02a2.095 2.095 0 00-.615.157 1.6 1.6 0 00-.644.479c-.18.213-.26.472-.26.771 0 .426.144.723.441.879.297.157.603.262.918.308.271.028.503.056.688.081.176.021.356.044.541.065.185.025.372.05.566.081.203.027.443.067.731.115.939.152 1.716.509 2.323 1.082.611.569.907 1.322.907 2.263zM351.688 117.699c0 .655-.136 1.205-.405 1.666-.277.45-.721.824-1.325 1.112l-.386-.635c.483-.258.818-.546 1.002-.858.183-.307.271-.745.271-1.306h-1.253v-2.048h2.097v2.069zM367.526 114.114c0 .711-.11 1.302-.348 1.793a4.694 4.694 0 01-.922 1.298 4.981 4.981 0 01-1.99 1.182c-.784.26-1.646.388-2.586.388a7.295 7.295 0 01-2.548-.433 5.007 5.007 0 01-1.957-1.297 5.765 5.765 0 01-.972-1.452 5.174 5.174 0 01-.48-1.754h1.231c.061.485.191.938.41 1.368.21.419.468.79.773 1.113.442.438.969.77 1.589.988a5.846 5.846 0 001.953.323c.7 0 1.375-.09 2.031-.282.648-.186 1.198-.493 1.634-.914.29-.274.523-.602.694-.98.175-.381.265-.826.265-1.341 0-.396-.069-.771-.219-1.114a3.008 3.008 0 00-.625-.946 3.579 3.579 0 00-.988-.708 4.258 4.258 0 00-1.31-.378l-3.003-.389a6.3 6.3 0 01-1.567-.404 3.867 3.867 0 01-1.267-.811 3.638 3.638 0 01-.832-1.214c-.192-.468-.29-1.017-.29-1.641 0-.685.13-1.261.396-1.748a4.992 4.992 0 011.013-1.299c.5-.454 1.101-.8 1.793-1.05a6.68 6.68 0 012.187-.363c.864 0 1.696.167 2.49.492.796.323 1.425.757 1.88 1.282.349.396.63.816.845 1.266.211.442.336.958.383 1.534h-1.205a4.642 4.642 0 00-.297-1.102 3.655 3.655 0 00-.592-.951c-.351-.431-.836-.776-1.461-1.016a5.59 5.59 0 00-2.043-.367c-.572 0-1.133.079-1.67.229-.54.152-1.011.4-1.402.747-.3.277-.559.604-.771.979-.216.382-.322.836-.322 1.365 0 .472.083.88.242 1.218.162.344.368.622.625.843.261.219.562.39.913.51.345.12.7.209 1.068.252l3.05.389a5.084 5.084 0 011.703.502c.521.255.96.577 1.331.963.374.39.658.825.868 1.321.203.495.3 1.029.3 1.609zM375.497 103.984l-3.442 9.121H379l-3.503-9.121zm5.574 14.495l-1.636-4.255h-7.81l-1.59 4.255h-1.227l6.115-16.131h1.164l6.185 16.131h-1.201z"/><g><g fill="#EBC100"><path d="M302.193 160.503h-35.035c-.826 0-1.48.597-1.48 1.33 0 .728.654 1.322 1.48 1.322h35.035c.826 0 1.484-.595 1.484-1.322 0-.733-.658-1.33-1.484-1.33zM380.674 160.503h-35.031c-.818 0-1.485.597-1.485 1.33 0 .728.667 1.322 1.485 1.322h35.031c.818 0 1.496-.595 1.496-1.322 0-.733-.678-1.33-1.496-1.33z"/></g><path fill="#C22821" d="M297.383 168.126l29.531-13.379v8.198l22.518-7.834s.355-.059.467.177c.113.236-.071.468-.071.468l-28.772 12.998v-7.874l-23.353 8.261s-.329.086-.517-.362c-.139-.357.197-.653.197-.653z"/><path fill="#222221" d="M276.062 138.997a10.37 10.37 0 00-3.358-.563c-4.047 0-7.209 3.217-7.209 7.236 0 3.927 3.077 6.984 7.001 6.984.903 0 2.766-.167 3.566-.547l.147-5.151c-.797.783-1.718 1.275-2.865 1.275-1.503 0-2.807-1.168-2.807-2.693 0-1.49 1.227-2.68 2.725-2.68 1.132 0 2.15.636 2.947 1.388l-.147-5.249z"/><path fill-rule="evenodd" clip-rule="evenodd" fill="#222221" d="M282.209 150.717h3.781l.462 1.721h5.303l-4.903-13.791h-5.558l-4.789 13.791h5.3l.404-1.721zm.903-3.275l.916-4.207h.184c.081.587.179 1.195.326 1.776l.59 2.431h-2.016z"/><path fill="#222221" d="M290.169 143.125l2.755-.125v9.438h5.006V143l2.769.125v-4.479h-10.53v4.479z"/><path fill-rule="evenodd" clip-rule="evenodd" fill="#222221" d="M304.778 150.717h3.785l.457 1.721h5.31l-4.916-13.791h-5.545l-4.797 13.791h5.3l.406-1.721zm.9-3.275l.912-4.207h.188c.088.587.178 1.195.317 1.776l.587 2.431h-2.004z"/><path fill="#222221" d="M315.148 152.438h9.217v-4.426h-4.209v-9.366h-5.008v13.792zM333.188 138.646v7.688c0 1.078-.044 2.024-1.367 2.024-1.351 0-1.386-.946-1.386-2.024v-7.688h-5.019v8.154c0 4.021 2.538 5.854 6.404 5.854 3.86 0 6.365-1.833 6.365-5.854v-8.154h-4.997z"/><path fill-rule="evenodd" clip-rule="evenodd" fill="#222221" d="M340.111 152.438h4.791v-4.476c0-.918-.146-1.816-.311-2.763h.138l4.404 7.238h4.797v-13.791h-4.797v4.132c0 1.179.225 2.354.43 3.512h-.144l-4.503-7.644h-4.806v13.792h.001z"/><path fill="#222221" d="M354.617 138.646l4.806 7.85v5.941h4.907v-5.941l4.719-7.85h-5.633l-.993 2.309c-.178.413-.311.855-.446 1.299h-.154l-1.529-3.607h-5.677v-.001z"/><path fill-rule="evenodd" clip-rule="evenodd" fill="#222221" d="M372.435 150.717h3.796l.449 1.721h5.312l-4.931-13.791h-5.54l-4.781 13.791h5.303l.392-1.721zm.903-3.275l.915-4.207h.177c.099.587.18 1.195.33 1.776l.591 2.431h-2.013zM290.571 184.973h4.911v-4.434h.087l2.203 4.434h5.774l-3-4.481c-.269-.399-.576-.617-.841-.825v-.104c1.867-.628 2.676-1.507 2.676-3.593 0-3.477-2.643-4.793-5.744-4.793h-6.066v13.796zm4.911-10.026h.386c.863 0 1.607.118 1.607 1.185 0 1.023-.825 1.152-1.651 1.152h-.342v-2.337zM309.212 167.935l2.618 2.417 1.705-.897-1.67-2.294-2.653.774zm.537 15.318h3.786l.468 1.72h5.3l-4.927-13.797h-5.543l-4.795 13.797h5.31l.401-1.72zm.907-3.275l.912-4.212h.183c.088.585.186 1.193.325 1.777l.588 2.435h-2.008zM319.96 184.973h6.356c4.046 0 6.934-2.595 6.934-6.697 0-5.07-3.553-7.1-8.173-7.1h-5.117v13.797zm5.029-9.472h.3c1.834 0 2.959.819 2.959 2.754 0 1.815-1.283 2.584-2.959 2.584h-.3v-5.338z"/><path fill="#222221" d="M334.874 184.973h5.002v-13.797h-5.002v13.797z"/><path fill-rule="evenodd" clip-rule="evenodd" fill="#222221" d="M348.913 170.954c-4.193 0-7.626 2.818-7.626 7.157 0 4.425 3.418 7.083 7.626 7.083 4.213 0 7.638-2.658 7.638-7.083 0-4.339-3.437-7.157-7.638-7.157zm0 4.547c1.594 0 2.589 1.214 2.589 2.683 0 1.573-1.07 2.655-2.589 2.655-1.515 0-2.574-1.082-2.574-2.655 0-1.469.988-2.683 2.574-2.683z"/></g><g><path fill="#222221" d="M229.272 162.372c6.87-3.65 6.361-10.012 6.361-11.515 0-8.286-8.662-15.656-18.705-15.656-5.793 0-12.333 2.226-15.555 7.015-2.227 3.233-3.326 7.146-3.542 9.032h13.412c.281-1.198 1.188-4.78 5.959-4.845 3.854 0 5.685 2.531 5.685 5.814 0 4.933-5.053 5.28-6.94 5.28h-3.602v9.765h3.602c1.888 0 6.94.352 6.94 5.27 0 3.309-1.83 5.827-5.685 5.827-4.771-.067-5.678-3.651-5.959-4.84h-13.412c.215 1.891.576 5.827 2.885 9.195 3.367 4.996 10.176 7.314 16.196 7.314 10.454 0 19.229-7.241 19.229-16.309.001-1.56.001-7.683-6.869-11.347z"/><path fill="#C22821" d="M171.215 144.504l31.532 17.868-5.015 2.911-26.517-15.042v-5.737zM171.215 153.726l23.387 13.259-5.009 2.907-18.378-10.425v-5.741zM171.215 162.96l15.255 8.679-5.018 2.91-10.237-5.854v-5.735zM171.215 172.187l7.115 4.066-7.115 4.068v-8.134z"/></g><path fill="#030104" d="M97.5 127.5h284v2h-284z"/></svg>